Run_20002
nRows=4
nColumns=173

# SIMM Motion File Header:
name Run_20002
datacolumns 173
datarows 4
otherdata 1
range 0.04000000 0.07000000
endheader
time	pelvis_tilt	pelvis_list	pelvis_rotation	pelvis_tx	pelvis_ty	pelvis_tz	hip_flexion_r	hip_adduction_r	hip_rotation_r	knee_angle_r	ankle_angle_r	hip_flexion_l	hip_adduction_l	hip_rotation_l	knee_angle_l	ankle_angle_l	lumbar_extension	lumbar_bending	lumbar_rotation	arm_flex_r	arm_add_r	arm_rot_r	elbow_flex_r	pro_sup_r	arm_flex_l	arm_add_l	arm_rot_l	elbow_flex_l	pro_sup_l	subtalar_angle_r	mtp_angle_r	subtalar_angle_l	mtp_angle_l	wrist_flex_r	wrist_dev_r	wrist_flex_l	wrist_dev_l	LASI_tx	LASI_ty	LASI_tz	RASI_tx	RASI_ty	RASI_tz	LPSI_tx	LPSI_ty	LPSI_tz	RPSI_tx	RPSI_ty	RPSI_tz	RTH1_tx	RTH1_ty	RTH1_tz	RTH2_tx	RTH2_ty	RTH2_tz	RTH3_tx	RTH3_ty	RTH3_tz	LTH1_tx	LTH1_ty	LTH1_tz	LTH2_tx	LTH2_ty	LTH2_tz	LTH3_tx	LTH3_ty	LTH3_tz	RTB1_tx	RTB1_ty	RTB1_tz	RTB2_tx	RTB2_ty	RTB2_tz	RTB3_tx	RTB3_ty	RTB3_tz	RLMAL_tx	RLMAL_ty	RLMAL_tz	RMMAL_tx	RMMAL_ty	RMMAL_tz	LTB1_tx	LTB1_ty	LTB1_tz	LTB2_tx	LTB2_ty	LTB2_tz	LTB3_tx	LTB3_ty	LTB3_tz	RCAL_tx	RCAL_ty	RCAL_tz	RTOE_tx	RTOE_ty	RTOE_tz	RMT5_tx	RMT5_ty	RMT5_tz	LCAL_tx	LCAL_ty	LCAL_tz	LTOE_tx	LTOE_ty	LTOE_tz	LMT5_tx	LMT5_ty	LMT5_tz	LACR_tx	LACR_ty	LACR_tz	RACR_tx	RACR_ty	RACR_tz	CLAV_tx	CLAV_ty	CLAV_tz	C7_tx	C7_ty	C7_tz	LPSH_tx	LPSH_ty	LPSH_tz	RUA1_tx	RUA1_ty	RUA1_tz	RUA2_tx	RUA2_ty	RUA2_tz	RUA3_tx	RUA3_ty	RUA3_tz	RLEL_tx	RLEL_ty	RLEL_tz	RMEL_tx	RMEL_ty	RMEL_tz	LUA1_tx	LUA1_ty	LUA1_tz	LUA2_tx	LUA2_ty	LUA2_tz	LUA3_tx	LUA3_ty	LUA3_tz	LLEL_tx	LLEL_ty	LLEL_tz	LMEL_tx	LMEL_ty	LMEL_tz	RFAsuperior_tx	RFAsuperior_ty	RFAsuperior_tz	RFAradius_tx	RFAradius_ty	RFAradius_tz	RFAulna_tx	RFAulna_ty	RFAulna_tz	LFAsuperior_tx	LFAsuperior_ty	LFAsuperior_tz	LFAradius_tx	LFAradius_ty	LFAradius_tz	LFAulna_tx	LFAulna_ty	LFAulna_tz
      0.04000000	     -1.87760846	      1.68606239	     -0.32811726	      0.97801565	      1.01337881	     -0.50805138	     28.39129679	      2.56922310	     12.81231968	    -69.53065876	      5.93283659	      3.55532968	      6.91608921	      8.46632087	    -27.94126571	     22.61382094	     -8.70845584	     -1.86951165	     -4.70711115	    -28.67775681	    -21.03769828	     -6.62214251	     95.14041911	    101.67859529	    -11.98197968	    -10.63986173	     -7.51257642	    116.49486008	     90.50961118	      0.00000000	      0.00000000	      0.00000000	      0.00000000	      0.00000000	      0.00000000	      0.00000000	      0.00000000	      0.98748567	      1.04978003	     -0.62238670	      0.99078873	      1.05372921	     -0.38509368	      0.82343913	      1.08574820	     -0.54872822	      0.82333026	      1.08132848	     -0.46077672	      0.97669804	      0.79734262	     -0.34357376	      1.07387641	      0.75945691	     -0.37172708	      1.04438923	      0.64325549	     -0.37243162	      0.88383988	      0.83117845	     -0.67255054	      0.95488651	      0.72073444	     -0.66384234	      0.89910294	      0.62196864	     -0.65184962	      1.04604220	      0.42182776	     -0.39768861	      0.98021709	      0.41041857	     -0.34753357	      0.91699071	      0.29487582	     -0.36945209	      0.81451949	      0.23738947	     -0.33908118	      0.84290615	      0.22512332	     -0.41830677	      0.89966730	      0.38297852	     -0.60941820	      0.78310138	      0.31993603	     -0.63538432	      0.80389658	      0.21733472	     -0.58426417	      0.75357871	      0.23923336	     -0.40362316	      0.91791615	      0.09703356	     -0.35651377	      0.85364112	      0.13274355	     -0.29080709	      0.64202212	      0.10245423	     -0.53670610	      0.86798447	      0.06949304	     -0.55369323	      0.80569576	      0.05722159	     -0.62143074	      0.97828487	      1.54945364	     -0.66981026	      0.96076150	      1.53905162	     -0.35630716	      1.03306795	      1.46581636	     -0.48491254	      0.94240887	      1.57690939	     -0.51473973	      0.89720678	      1.51053480	     -0.68583362	      0.87927535	      1.41823162	     -0.25587350	      0.79160211	      1.38548098	     -0.27358138	      0.78271292	      1.34071089	     -0.21786302	      0.77694466	      1.27763508	     -0.18235047	      0.74585186	      1.25971037	     -0.26158220	      0.90755918	      1.41366111	     -0.74111099	      0.84974581	      1.32934527	     -0.71892332	      0.87389835	      1.28136081	     -0.77091021	      0.88421986	      1.20546752	     -0.78890234	      0.85538694	      1.19455468	     -0.70312607	      0.80325741	      1.20010270	     -0.18525962	      0.97427380	      1.11923566	     -0.25650400	      0.93966826	      1.07519026	     -0.21901059	      0.96047876	      1.15873235	     -0.74810034	      1.10701394	      1.22910006	     -0.68498580	      1.11726249	      1.16168554	     -0.69571049
      0.05000000	     -2.10883742	      1.16557905	     -0.18816807	      0.97872065	      1.01744906	     -0.50766090	     29.00513656	      2.89813813	     12.46645803	    -66.31478570	      6.34177757	      1.81274573	      6.15917549	      8.57083445	    -26.38891844	     21.05809961	     -8.32250036	     -1.25693630	     -5.54022647	    -29.99531720	    -21.67048341	     -6.43153932	     96.82354792	    100.83562786	    -11.04655668	    -10.58657965	     -6.03008262	    119.22199202	     90.03822348	      0.00000000	      0.00000000	      0.00000000	      0.00000000	      0.00000000	      0.00000000	      0.00000000	      0.00000000	      0.98825947	      1.05207428	     -0.62239979	      0.99131848	      1.05816467	     -0.38504223	      0.82319198	      1.08975466	     -0.54785673	      0.82400937	      1.08549037	     -0.46086892	      0.97888928	      0.80292534	     -0.34252291	      1.07737988	      0.76574510	     -0.37137952	      1.04746241	      0.64926295	     -0.37021648	      0.87933052	      0.83530499	     -0.67216044	      0.94736405	      0.72301918	     -0.66327898	      0.88806777	      0.62596998	     -0.65193283	      1.05688494	      0.42501757	     -0.39658408	      0.99201491	      0.40935854	     -0.34683912	      0.93598912	      0.29039406	     -0.37057833	      0.83695305	      0.22600024	     -0.34011002	      0.86665666	      0.21698346	     -0.42026834	      0.88366400	      0.38643554	     -0.61029796	      0.76639274	      0.32458286	     -0.63502486	      0.78702155	      0.22138512	     -0.58477229	      0.77517201	      0.22495740	     -0.40413470	      0.94976253	      0.09370970	     -0.35948371	      0.88323402	      0.12354982	     -0.29344486	      0.62485875	      0.10968418	     -0.53707850	      0.84868425	      0.07002883	     -0.55389407	      0.78623104	      0.05756110	     -0.62128712	      0.97913552	      1.55530121	     -0.66857625	      0.95833843	      1.54401283	     -0.35650407	      1.03285659	      1.47041778	     -0.48383159	      0.94217197	      1.58091765	     -0.51453136	      0.89873228	      1.51536442	     -0.68578478	      0.87496807	      1.42592825	     -0.25589480	      0.78748417	      1.39510902	     -0.27255415	      0.77763134	      1.34987614	     -0.21752312	      0.76968826	      1.28742183	     -0.18257709	      0.73887377	      1.27000260	     -0.26204315	      0.91145855	      1.41806610	     -0.74079115	      0.85424881	      1.33252675	     -0.72084687	      0.88291119	      1.28461382	     -0.77071576	      0.89468282	      1.20890414	     -0.78740633	      0.86258335	      1.19883614	     -0.70224313	      0.79562709	      1.21014827	     -0.18539034	      0.96724065	      1.13010119	     -0.25584231	      0.93259490	      1.08562554	     -0.21915602	      0.97114811	      1.16743697	     -0.74247660	      1.11097434	      1.24707471	     -0.67542296	      1.12495866	      1.18006461	     -0.68364878
      0.06000000	     -2.42654953	      0.66900261	     -0.08766269	      0.97966247	      1.02153609	     -0.50733607	     29.52445509	      3.11491519	     12.08249572	    -62.72079083	      6.63305569	      0.20355359	      5.40858427	      8.55633854	    -24.86003397	     19.14948851	     -7.80948810	     -0.66476110	     -6.28010681	    -31.33794143	    -22.20700150	     -6.37938564	     98.41023281	    100.01513603	    -10.18995411	    -10.51547138	     -4.47302679	    121.79690945	     89.97232811	      0.00000000	      0.00000000	      0.00000000	      0.00000000	      0.00000000	      0.00000000	      0.00000000	      0.00000000	      0.98918542	      1.05472428	     -0.62239949	      0.99206494	      1.06258037	     -0.38503328	      0.82380272	      1.09416261	     -0.54746298	      0.82484518	      1.09009552	     -0.46087258	      0.98091309	      0.80843151	     -0.34114105	      1.07981483	      0.77190474	     -0.37045890	      1.04996563	      0.65516381	     -0.36773966	      0.87492875	      0.83980788	     -0.67183198	      0.93997456	      0.72579963	     -0.66296310	      0.87750893	      0.63042856	     -0.65227608	      1.06713205	      0.42804995	     -0.39509816	      1.00333407	      0.40798978	     -0.34602600	      0.95500788	      0.28582309	     -0.37135664	      0.85999862	      0.21443699	     -0.34130288	      0.89060537	      0.20873014	     -0.42190767	      0.86824439	      0.39049833	     -0.61150554	      0.75027777	      0.32986143	     -0.63496323	      0.77073703	      0.22608007	     -0.58559936	      0.79787057	      0.21014240	     -0.40499231	      0.98208970	      0.09094378	     -0.36236689	      0.91345349	      0.11479245	     -0.29590927	      0.60836306	      0.11769463	     -0.53754137	      0.82911466	      0.07041663	     -0.55406153	      0.76713695	      0.05801988	     -0.62129825	      0.97999916	      1.56110418	     -0.66735867	      0.95615596	      1.54902320	     -0.35670954	      1.03277192	      1.47514271	     -0.48276680	      0.94202632	      1.58506385	     -0.51429050	      0.90025587	      1.52012691	     -0.68571207	      0.87101973	      1.43362510	     -0.25597474	      0.78374452	      1.40454080	     -0.27211330	      0.77268576	      1.35902138	     -0.21767992	      0.76270296	      1.29707274	     -0.18315003	      0.73242256	      1.28006774	     -0.26292894	      0.91547099	      1.42264789	     -0.74047166	      0.85918208	      1.33607526	     -0.72242727	      0.89119413	      1.28825497	     -0.77055923	      0.90451655	      1.21263814	     -0.78590658	      0.86911667	      1.20321198	     -0.70143422	      0.78836637	      1.22004132	     -0.18587543	      0.96069631	      1.14081078	     -0.25539806	      0.92589778	      1.09590803	     -0.21957869	      0.98082067	      1.17634029	     -0.73685611	      1.11361860	      1.26464039	     -0.66600138	      1.13120631	      1.19820126	     -0.67190625
      0.07000000	     -2.84732310	      0.25468035	     -0.04020737	      0.98092118	      1.02566659	     -0.50711018	     29.93406539	      3.13666949	     11.62764307	    -58.68772839	      6.94687596	     -1.21941852	      4.72997163	      8.39099639	    -23.41538756	     16.76147713	     -7.15648328	     -0.15770199	     -6.91258725	    -32.66626857	    -22.56268349	     -6.52316476	     99.84762448	     99.44260106	     -9.54023476	    -10.41096988	     -2.85854802	    124.23659254	     90.37393030	      0.00000000	      0.00000000	      0.00000000	      0.00000000	      0.00000000	      0.00000000	      0.00000000	      0.00000000	      0.99035178	      1.05788801	     -0.62232403	      0.99315096	      1.06693672	     -0.38510828	      0.82545136	      1.09899679	     -0.54759250	      0.82607871	      1.09512791	     -0.46080712	      0.98246834	      0.81381340	     -0.33949593	      1.08088502	      0.77777444	     -0.36871481	      1.05149122	      0.66079768	     -0.36496748	      0.87079985	      0.84478273	     -0.67160113	      0.93285924	      0.72926005	     -0.66302090	      0.86767084	      0.63550906	     -0.65298983	      1.07645509	      0.43078182	     -0.39310095	      1.01398451	      0.40610564	     -0.34496683	      0.97403056	      0.28116429	     -0.37172168	      0.88392867	      0.20275023	     -0.34268227	      0.91492038	      0.20045770	     -0.42321110	      0.85370339	      0.39538538	     -0.61317279	      0.73505573	      0.33600014	     -0.63532427	      0.75533651	      0.23160996	     -0.58687375	      0.82209024	      0.19478153	     -0.40627616	      1.01498135	      0.08919145	     -0.36512171	      0.94450456	      0.10687550	     -0.29802792	      0.59290976	      0.12675501	     -0.53817005	      0.80915633	      0.07045491	     -0.55427703	      0.74859949	      0.05867440	     -0.62162168	      0.98095840	      1.56682973	     -0.66623604	      0.95438960	      1.55403226	     -0.35687539	      1.03288657	      1.48001484	     -0.48173882	      0.94202741	      1.58937066	     -0.51396820	      0.90182162	      1.52482674	     -0.68559207	      0.86761722	      1.44117649	     -0.25616288	      0.78053898	      1.41352015	     -0.27268596	      0.76795357	      1.36803609	     -0.21864929	      0.75616897	      1.30642863	     -0.18425813	      0.72683229	      1.28968113	     -0.26448986	      0.91965131	      1.42744541	     -0.74011722	      0.86449518	      1.34010850	     -0.72348183	      0.89836799	      1.29244640	     -0.77043076	      0.91334962	      1.21679174	     -0.78441590	      0.87469516	      1.20772131	     -0.70075648	      0.78168186	      1.22962220	     -0.18687558	      0.95487390	      1.15119784	     -0.25527085	      0.91986044	      1.10587752	     -0.22025594	      0.98896110	      1.18543638	     -0.73130254	      1.11436450	      1.28143329	     -0.65690881	      1.13530730	      1.21579316	     -0.66072770
